<svg id="svg" xmlns="http://www.w3.org/2000/svg" xmlns:xlink="http://www.w3.org/1999/xlink" width="400" height="300" viewBox="0, 0, 400,300"><g id="svgg"><path id="path0" d="M303.246 3.104 C 288.116 10.300,282.562 17.917,272.776 44.898 C 257.614 86.696,244.618 134.305,234.013 186.896 C 226.829 222.522,229.335 219.522,208.353 217.613 C 198.992 216.761,186.833 216.348,181.333 216.695 C 175.833 217.042,158.133 217.957,142.000 218.728 C 56.115 222.834,34.649 227.792,47.429 240.571 C 50.012 243.155,43.794 242.941,109.333 242.697 C 180.821 242.430,203.970 244.873,222.450 254.636 C 226.800 256.933,71.391 259.515,63.333 257.279 C 45.804 252.415,37.902 272.882,51.903 286.883 C 63.345 298.326,77.040 292.369,75.778 276.499 L 75.314 270.667 85.324 270.697 C 90.829 270.713,125.033 271.600,161.333 272.667 C 197.633 273.734,229.583 274.620,232.333 274.637 C 237.164 274.666,237.333 274.827,237.333 279.386 C 237.333 298.813,262.882 308.275,268.121 290.789 C 269.784 285.239,268.147 277.419,264.429 273.152 C 262.739 271.213,263.040 270.653,267.129 268.126 C 279.645 260.391,278.611 237.295,265.357 228.524 L 259.837 224.871 260.672 216.102 C 265.519 165.175,275.340 112.648,288.748 65.934 C 302.203 19.057,311.933 12.723,338.352 33.645 C 353.090 45.316,365.263 42.798,363.642 28.413 C 361.403 8.546,324.403 -6.959,303.246 3.104 M60.936 58.692 C 32.641 61.227,14.800 66.144,5.863 73.870 L 0.667 78.362 0.684 90.848 L 0.701 103.333 26.358 156.000 C 53.704 212.136,56.352 216.278,66.052 218.098 C 70.846 218.997,180.283 205.262,189.589 202.593 C 195.607 200.867,199.684 197.812,202.036 193.264 C 204.726 188.061,219.998 98.270,218.374 97.201 C 216.458 95.940,193.671 92.207,182.667 91.350 C 157.813 89.417,159.081 89.796,158.161 84.040 C 157.709 81.213,156.943 77.867,156.459 76.605 C 155.219 73.374,187.217 76.745,215.718 82.848 C 232.512 86.445,235.333 86.036,235.333 80.000 C 235.333 64.697,133.191 52.217,60.936 58.692 M139.023 81.345 C 141.366 90.646,141.802 90.296,127.007 90.960 L 118.681 91.333 116.007 83.408 C 114.537 79.049,113.333 74.999,113.333 74.408 C 113.333 73.817,118.659 73.333,125.169 73.333 L 137.005 73.333 139.023 81.345 M98.172 84.029 L 101.011 93.363 98.172 93.992 C 96.611 94.338,91.133 95.548,86.000 96.681 C 80.867 97.814,75.676 99.046,74.464 99.419 C 71.620 100.294,63.313 79.922,65.898 78.414 C 67.517 77.470,84.190 75.135,91.333 74.852 C 95.160 74.701,95.456 75.099,98.172 84.029 M53.291 93.642 C 55.596 99.678,56.896 104.812,56.181 105.051 C 55.465 105.289,49.950 107.869,43.924 110.782 C 31.025 117.020,31.333 117.170,31.333 104.663 C 31.333 93.340,39.031 83.338,48.217 82.726 C 48.702 82.693,50.986 87.606,53.291 93.642 M204.110 103.488 L 208.887 104.276 206.238 117.805 C 204.781 125.246,203.531 131.423,203.461 131.532 C 203.391 131.642,199.133 130.914,194.000 129.915 C 188.867 128.916,181.667 128.067,178.000 128.029 C 174.333 127.990,170.563 127.471,169.622 126.873 C 168.155 125.943,162.667 106.612,162.667 102.377 C 162.667 100.912,193.520 101.739,204.110 103.488 M366.000 102.835 C 308.578 108.296,283.119 122.553,330.667 122.621 C 367.275 122.673,397.885 117.579,399.494 111.168 C 401.858 101.750,395.095 100.068,366.000 102.835 M148.293 114.333 L 151.613 126.000 148.807 126.867 C 147.263 127.344,142.340 127.794,137.867 127.867 L 129.733 128.000 126.402 117.000 C 122.491 104.087,122.063 105.320,130.913 104.031 C 145.650 101.885,144.568 101.244,148.293 114.333 M108.645 118.852 C 112.696 131.675,113.573 130.156,100.711 132.616 C 94.963 133.716,89.260 134.933,88.038 135.321 C 86.284 135.878,84.965 133.797,81.778 125.449 L 77.740 114.871 90.537 111.564 C 97.575 109.744,103.757 108.198,104.275 108.128 C 104.793 108.058,106.760 112.883,108.645 118.852 M67.388 131.491 L 70.415 139.649 57.802 144.642 C 50.865 147.387,45.029 149.416,44.834 149.150 C 44.313 148.442,38.667 133.201,38.667 132.504 C 38.667 130.747,63.355 120.076,63.833 121.626 C 64.123 122.565,65.723 127.004,67.388 131.491 M159.769 155.117 C 162.096 163.431,164.000 170.657,164.000 171.173 C 164.000 171.690,159.403 171.937,153.784 171.723 L 143.568 171.333 139.917 160.455 C 137.908 154.472,135.865 147.755,135.376 145.528 L 134.487 141.479 141.577 140.986 C 145.476 140.715,150.213 140.382,152.102 140.247 C 155.384 140.011,155.727 140.677,159.769 155.117 M201.333 143.245 C 201.333 148.660,194.738 182.583,192.768 187.296 C 190.224 193.385,188.287 193.841,141.817 199.289 C 95.983 204.662,98.275 204.486,102.667 202.308 C 104.500 201.398,106.900 198.776,108.000 196.479 C 109.967 192.373,110.229 192.279,124.000 190.726 C 159.425 186.733,186.667 179.953,186.667 175.131 C 186.667 174.025,185.137 173.333,182.692 173.333 C 179.682 173.333,178.535 172.605,177.966 170.333 C 177.553 168.683,175.829 161.183,174.136 153.667 L 171.058 140.000 186.196 140.000 L 201.333 140.000 201.333 143.245 M120.882 158.667 L 124.967 172.000 112.150 171.986 L 99.333 171.971 95.667 162.186 C 90.870 149.386,90.639 150.015,101.000 147.649 C 117.160 143.959,116.215 143.435,120.882 158.667 M79.298 163.909 L 82.556 172.223 79.277 175.112 C 72.177 181.365,76.123 194.667,85.077 194.667 C 86.516 194.667,88.697 196.199,89.924 198.072 C 91.151 199.944,93.470 201.980,95.078 202.595 C 98.798 204.018,96.782 204.546,79.458 206.687 C 64.853 208.492,66.126 209.678,57.966 186.667 C 54.456 176.767,51.343 167.994,51.049 167.172 C 50.754 166.350,51.298 165.340,52.257 164.928 C 53.216 164.516,58.776 162.065,64.614 159.481 C 70.452 156.898,75.411 154.966,75.634 155.189 C 75.857 155.412,77.506 159.336,79.298 163.909 M341.333 166.865 C 284.691 172.096,279.201 183.124,333.333 182.936 C 375.110 182.791,388.662 180.137,387.747 172.281 C 386.935 165.313,374.216 163.829,341.333 166.865 M355.333 227.580 C 306.893 231.799,287.542 236.448,290.148 243.239 C 294.090 253.512,377.759 249.029,388.837 237.951 C 398.365 228.423,386.788 224.839,355.333 227.580 M62.895 270.207 C 65.701 272.746,66.106 277.718,63.667 279.683 C 59.157 283.318,52.232 274.540,56.014 269.983 C 58.139 267.422,59.881 267.479,62.895 270.207 M256.812 279.779 C 259.929 286.055,254.364 291.164,249.600 286.400 C 247.858 284.658,247.426 278.352,248.945 276.833 C 250.770 275.008,255.282 276.698,256.812 279.779 " stroke="none" fill="#000000" fill-rule="evenodd"></path></g></svg>